<?xml version="1.0" encoding="UTF-8"?>
<svg id="Layer_1" data-name="Layer 1" xmlns="http://www.w3.org/2000/svg" version="1.1" viewBox="0 0 2000 2000">
  <defs>
    <style>
      .cls-1 {
        fill: #eef7ff;
      }

      .cls-1, .cls-2, .cls-3, .cls-4, .cls-5, .cls-6 {
        stroke-width: 0px;
      }

      .cls-2 {
        fill: #cce6ff;
      }

      .cls-3 {
        fill: #7db2ff;
      }

      .cls-4 {
        fill: #21406d;
      }

      .cls-5 {
        fill: #fff;
      }

      .cls-6 {
        fill: #cbe2ef;
      }
    </style>
  </defs>
  <path class="cls-4" d="M982.73,1521.74c-10.31.21-20.65-.12-30.81-1.21-12.59-1.36-24.94-4.48-36.77-8.97-7.29-2.77-14.38-6.05-21.26-9.72-19.53-10.41-36.69-23.82-50.56-41.16-7.17-8.97-11.19-19.64-15.39-30.19-2.72-6.83-4.71-13.91-7.71-20.64-2.5-5.61-6.77-7.76-12.54-7.8-6.24-.05-12.48.13-18.71-.05-30.01-.83-54.69-12.46-73.53-36.13-7.62-9.58-13.81-20.02-18.51-31.23-3.03-7.22-7.91-10.51-15.45-10.29-11.4.33-22.63-.62-33.67-3.72-16.39-4.61-31.11-12.23-44.04-23.4-20.49-17.69-33.01-39.91-38.16-66.34-1.92-9.88-2.31-19.98-2.39-30-.24-29.58-.07-59.15-.09-88.73,0-10.35-2.4-12.48-12.7-11.2-12.71,1.58-25.47,2.27-38.24,1.64-16.3-.8-30.79-6.1-42.9-17.59-11.43-10.85-25.06-18.68-38.58-26.6-14.05-8.24-28.53-15.77-41.36-25.95-78.69-62.41-58.16-200.34,32.4-240.4,17.21-7.61,35.13-12.62,53.84-14.63,28.73-3.07,56.03.96,80.98,16.53,2.57,1.6,5.24,3.07,8.04,4.26,3.15,1.35,5.23.34,6.13-3.06,1.63-6.2,1.92-12.6,2.9-18.89,7.63-48.77,24.57-93.99,51.05-135.71,16.26-25.63,35.3-48.94,57.38-69.7,18.79-17.67,39.63-32.69,62.03-45.52,112.2-64.25,263.08-63.83,372.79,7.56,19.47,12.67,37.89,27.31,54.87,43.15,25.68,23.97,46.87,51.25,63.75,82.02,17.46,31.81,28.68,65.71,35.2,101.29,2.24,12.24,3.41,24.62,5.03,36.95,1.34,10.14,1.83,8.38,8.34,4.14,16.87-10.97,34.72-19.64,54.71-23.36,17.61-3.28,34.94-2.18,52.09,2.8,23.9,6.94,45.88,17.72,65.03,33.71,16.09,13.45,29.56,29.29,38.29,48.45,4.41,9.67,10.65,14.02,21.1,16.57,23.36,5.7,45.1,17.34,60.87,35.74,18.33,21.39,24.52,44.98,24.84,72.74.25,21.75-1.69,41.82-13.25,60.7-15.05,24.6-35.08,44.21-60.84,57.54-13.31,6.89-27.62,10.71-42.46,12.73-12.38,1.69-24.8,2.01-37.26,1.98-37.42-.09-74.84-.19-112.25.05-13.28.08-26.48-1.41-39.74-1.17-3.33.06-6.6-1.12-10-.77-2.59.27-3.61,1.5-3.43,4.11,1.14,16.06,1.85,32.15,2.72,48.23,1.06,19.45,1.97,38.88,1.71,58.36-.36,27.37-4.33,54.06-15.72,79.23-7.69,17-19.98,29.87-36.15,39.08-12.66,7.21-26.36,11.36-40.68,13.56-5.88.9-9.4,4.07-11.14,9.74-3.79,12.41-8.29,24.51-16.39,34.93-13.89,17.86-32.1,28.38-54.35,32.04-2.83.47-5.65.98-8.53,1.18-7.81.54-13.15,4.41-15.57,12.04-2.33,7.34-5.65,14.26-9.3,21.01-9.19,16.95-21.82,30.64-38.85,39.97-11.25,6.16-23.27,8.02-35.87,9.04-6.91.56-13.91.95-20.91,1.09Z"/>
  <path class="cls-5" d="M811.03,540.46c6.24-2.92,12.86-4.78,19.42-6.76,18.39-5.56,37.15-9.35,56.22-11.74,15.9-1.99,31.84-3.01,47.85-2.46,44.88,1.54,87.49,12.15,127.78,32.04,30.37,14.99,57.63,34.36,81.55,58.3,37.82,37.86,64.07,82.6,78.82,134.04,4.72,16.46,7.85,33.23,9.83,50.25,1.42,12.25,1.89,24.53,2.17,36.83.24,10.7.26,21.41.49,32.12.05,2.08-.52,3.6-2,5.06-4.45,4.38-9.77,7.18-15.71,8.82-3.23.89-6.52,1.6-9.83,2.08-14.77,2.18-26.77,9.13-36.13,20.69-1.61,1.98-3.16,4.03-4.53,6.19-10.82,17.11-19.55,35.15-24.35,54.94-3.95,16.31-5.51,32.81-3.16,49.46,1.24,8.77,1.48,17.47,1.2,26.27-.17,5.27-.13,10.55-.25,15.82-.04,1.89-.34,2.15-2.33,2.14-8.79-.03-17.59-.09-26.38-.2-16.63-.2-33.25-.44-49.88-.66-1.91-.03-3.78-.11-5.7-.52-6.42-1.37-12.28,3.08-12.78,9.63-.2,2.54-.12,5.11-.13,7.67-.1,21.1-.2,42.2-.28,63.29-.02,4.33.02,4.32-4.17,4.27-13.75-.18-27.5-.37-41.25-.54-11.35-.13-22.71-.19-34.06-.36-5.08-.07-8.47,2.31-10.56,6.8-.85,4.27-.23,8.58-.38,12.87-.15,4.41-1.14,5.33-5.48,4.98-32.63-2.62-62.61-13.13-90.52-30.03-21.35-12.92-40.34-28.71-57.16-47.03-28.19-30.7-49.44-65.73-64.38-104.64-10.24-26.66-16.29-54.36-21.06-82.4-2.73-16.03-5.07-32.13-6.51-48.31-1.36-15.24-2.68-30.51-2.26-45.87.27-9.58-.24-19.19.1-28.77,1.26-35.52,6.26-70.46,16.71-104.54,8.25-26.9,19.68-52.27,35.79-75.42,11.73-16.85,25.5-31.94,40.49-45.92,3.72-3.47,8.28-5.96,12.8-8.38Z"/>
  <path class="cls-6" d="M811.03,540.46c-3.35,2.94-6.71,5.87-10.05,8.82-1.32,1.16-2.64,2.33-3.89,3.56-3.42,3.36-6.86,6.71-10.2,10.16-11.81,12.19-22.54,25.26-31.76,39.52-5.91,9.13-11.29,18.58-15.84,28.46-3.94,8.56-7.52,17.27-10.74,26.15-5.08,14-8.89,28.36-12.17,42.85-1.76,7.77-3,15.67-4.28,23.55-1.07,6.61-1.98,13.25-2.71,19.9-.59,5.39-.84,10.81-1.17,16.22-.12,1.91-.17,3.81-.54,5.72-.3,1.55-.36,3.17-.37,4.77-.02,16.63-.01,33.25-.01,49.88,0,1.92.02,3.83.53,5.71.16.61.3,1.27.27,1.89-.31,6.25,1.01,12.4,1.16,18.63.08,3.66.59,7.31,1.03,10.95.89,7.28,1.75,14.57,2.86,21.81,1.44,9.46,3.07,18.89,4.68,28.33,2.01,11.81,4.58,23.51,7.53,35.12,4.46,17.53,10.25,34.6,17.53,51.19,4.31,9.82,9.05,19.43,14.18,28.82,7.36,13.47,15.82,26.28,25.21,38.45,4.87,6.32,10.05,12.39,15.27,18.43,5.14,5.94,10.77,11.36,16.25,16.95,4.26,4.33,9.06,8.06,13.67,12,7.31,6.23,15.04,11.88,23.06,17.15,14.48,9.53,29.85,17.26,46.16,23.22,11.46,4.19,23.24,7.06,35.19,9.21,3.9.7,7.85,1.45,11.88,1.38,1.73-.03,3.47.5,5.21.68,1.85.19,2.74-.52,2.8-2.36.1-3.19.09-6.39.11-9.59.01-1.44-.11-2.9,1-4.07-.26,18.54-.55,37.07-.78,55.61-.1,8.15-.11,16.31-.17,24.46,0,.96-.04,1.92-.11,2.87-.05.71-.47,1.19-1.19,1.25-.79.07-1.59.08-2.39.08-18.71-.13-37.42-.25-56.14-.41-6.56-.06-13.11-.21-19.67-.31-1.12-.02-2.24-.05-3.36.02-5.76.35-9.94,4.1-10.57,9.87-.4,3.64-.31,7.34-.37,11.02-.23,13.59-.44,27.17-.65,40.76-.12,7.94-1.58,15.57-5.16,22.71-7.1,14.14-18.31,23.15-33.77,26.71-5.76,1.33-11.59,2.45-17.5,2.82-18.63,1.16-34.5-5.28-47.94-17.97-8.15-7.7-14.03-16.96-18.05-27.4-4.56-11.83-7.45-24.1-9.52-36.57-.73-4.41-1.32-8.85-2-13.27-.19-1.21-.84-1.66-1.98-1.51-1.95.26-3.71,1.02-5.26,2.17-1.41,1.04-2.71,2.24-4.07,3.35-12.18,9.97-26.08,15.58-41.87,15.41-18.74-.2-33.46-8.53-44.35-23.64-6.18-8.58-9.7-18.31-11.73-28.61-2.29-11.63-3.48-23.39-3.95-35.22-.84-21.09-.91-42.19-1.08-63.29-.15-19.18-.46-38.36-.72-57.53-.03-2.24-.21-4.47-.32-6.71-.14-2.89-.58-5.71-1.65-8.42-1.94-5.26-1.51-10.74-1.03-16.1.91-10.16.82-20.36,1.71-30.51,1.03-11.73,2.01-23.49,2.44-35.23.38-10.46,2.02-20.89.63-31.46-1-7.62.62-15.51-1.96-23.04.32,0,.64,0,.96,0,2.66.13,2.73.05,2.62-2.46-.39-8.46-.86-16.91-1.14-25.38-.65-19.82-.35-39.62,1.25-59.39,2.13-26.38,7.09-52.2,15.15-77.41,15.99-50,42.23-93.99,78.42-131.95,29.24-30.67,63.97-53.27,103.56-68.37.58-.22,1.23-.28,1.84-.42Z"/>
  <path class="cls-5" d="M1505.99,1063.99c-.36.14-.72.28-1.08.43-8.28,1.68-16.55.68-24.77-.29-18.59-2.19-36.85-5.99-54.58-12.13-27.21-9.43-51.61-23.7-73.18-42.73-19.74-17.42-37.55-36.64-50.74-59.55-18.9-32.83-18.01-69.12,6.74-99.76,2.91-3.6,6.63-6.45,10.22-9.37,5.82-3.78,12.27-6.06,18.86-7.98,12.9-3.77,26.04-5.11,39.36-3.15,20.63,3.03,38.74,11.6,54.26,25.52,7.8,6.99,14.2,15.11,19.14,24.38,4.68,8.76,7.11,18.07,7.47,27.97.09,2.38,0,4.78.73,7.12,1.34,4.28,3.46,6.1,7.92,6.34,2.89.16,5.72-.47,8.56-.95,9.06-1.52,18.09-1.66,27.16.2,10.24,2.1,19.37,6.47,27.36,13.12,11.16,9.27,19.41,20.7,24.67,34.23,5.61,14.43,5.9,29.04.65,43.57-5.8,16.08-15.07,29.89-28.33,40.86-5.94,4.92-12.44,8.94-19.69,11.68-.29.1-.54.27-.74.5Z"/>
  <path class="cls-5" d="M608.36,905.82q3.81,2.26,3.85,6.6c.03,3.68.04,7.35.06,11.03.02,2.87.2,5.72.58,8.59.42,3.14.56,6.44.07,9.55-.74,4.63-.55,9.24-.69,13.86-.08,2.71.02,5.42-.67,8.1-.27,1.06-.22,2.22-.25,3.34-.1,3.99-.54,7.97-.72,11.92-.29,6.38-1.27,12.71-1.26,19.1,0,3.03-.21,6.03-.64,9.06-.47,3.3-.27,6.69-.33,10.05-.06,3.03-.25,6.04-.61,9.06-.46,3.79-.22,7.66-.3,11.49-.03,1.58.24,3.22-.9,4.59-1.48-1.71-3.37-2.21-5.58-2.11-2.59.12-5,.94-7.47,1.57-3.08.78-5.95,2.33-9.17,2.58-5.05.56-9.34-1.78-13.65-3.77-23.17-10.7-44.37-24.49-64.03-40.76-18.6-15.4-34.77-32.82-46.9-53.8-8.65-14.96-13.87-31.15-17.02-48.02-3.58-19.19-3.8-38.35,1.53-57.33,1.29-4.62,2.42-9.34,6.84-12.22,4.52-2.14,9.39-3.1,14.26-3.92,29.95-5,56.67,2.43,80.35,21.18,9.91,7.85,18.91,16.72,27.6,25.89,8.13,8.58,16.15,17.27,24.12,26,3.16,3.47,6.64,6.43,10.93,8.37Z"/>
  <path class="cls-6" d="M1318.6,840.58c-1.86,2.38-3.63,4.84-5.61,7.12-7.83,9.02-14.14,18.97-18.04,30.27-2.56,7.4-3.96,15.06-4.2,22.98-.49,15.76,3.63,30.38,10.71,44.2,4.74,9.24,10.75,17.71,17.33,25.8,5.24,6.44,10.79,12.61,16.33,18.76,5.33,5.92,10.98,11.57,17.12,16.73,5.13,4.32,10.27,8.61,15.65,12.61,8.35,6.2,17.09,11.74,26.22,16.72,12.24,6.69,25.01,12.12,38.32,16.23,10.23,3.16,20.59,5.84,31.19,7.48,5.67.88,11.32,2.06,17.02,2.56,5.24.46,10.43,1.57,15.74,1.23,2.91-.18,5.69.72,8.52,1.14-4.69,2.54-9.87,3.51-15.01,4.55-5.97,1.21-12.05,1.54-18.12,1.75-34.04,1.15-68.09,1.03-102.14.97-16.47-.03-32.93.18-49.4.22-15.99.04-31.98.25-47.96-.11-12.34-.28-24.5-2.36-36.17-6.57-30.36-10.95-48.19-32.6-53.85-64.14-3.07-17.13-.46-33.72,6.73-49.57,1.72-3.79,3.78-7.4,6.21-10.78,11.1-15.41,26.2-23.41,45.13-24.32,7.89-.38,15.63.56,23.27,2.48,1.7.43,3.41.87,5.15,1.12,3.73.53,5.87-.82,6.78-4.41.51-2,.73-4.08.95-6.14,1.22-11.51,3.83-22.66,8.74-33.2,6.73-14.43,16.78-25.94,30.39-34.29.93-.57,1.8-1.36,3.01-1.38Z"/>
  <path class="cls-6" d="M451.12,828.3c-2.66,5.83-4.79,11.83-6.12,18.11-1.57,7.35-2.53,14.75-2.68,22.28-.31,16.13,2.45,31.77,6.99,47.17,5.55,18.81,14.92,35.56,27.28,50.71,5.15,6.31,10.41,12.54,16.38,18.09,4.67,4.35,9.59,8.42,14.37,12.65,8.63,7.63,17.99,14.31,27.55,20.71,11.44,7.65,23.44,14.35,35.93,20.15,3.19,1.48,6.48,2.71,9.71,4.11,1.31.57,2.56,1.28,3.84,1.92-.94,1.02-2.3,1.08-3.48,1.45-12.2,3.82-24.53,7.14-37.11,9.48-8.09,1.51-16.19,1.75-24.28-.02-12.02-2.63-21.69-9.08-29.7-18.23-2.64-3.01-4.98-6.25-7.13-9.62-1.72-2.7-3.57-5.31-5.78-7.63-4.13-4.33-9.12-6.9-15.17-7.3-17.84-1.19-32.94-8.48-45.65-20.84-15.79-15.34-25.04-34.13-28.55-55.73-4.39-27.04,1.65-51.76,17.57-73.96,11.1-15.48,25.92-26.3,43.78-32.95.73-.27,1.53-.38,2.29-.56Z"/>
  <path class="cls-2" d="M1198.59,1229.99c-12.14,0-24.28,0-36.42,0-.8,0-1.6.02-2.4-.03-1.6-.1-2.07-.49-2.14-1.95-.08-1.59-.06-3.19-.04-4.79.2-19.63.41-39.27.6-58.9.05-5.74-.4-5.33,5.55-5.28,13.1.11,26.2.18,39.29.32,11.18.12,22.36.32,33.53.51,2.44.04,2.8.33,3.06,2.68.42,3.81.78,7.62,1.05,11.44,1.16,16.11,1.62,32.23,0,48.32-.97,9.59,1.11,8.09-9.02,8.08-11.02-.02-22.04,0-33.07,0,0-.13,0-.26,0-.38Z"/>
  <path class="cls-3" d="M910.09,1314.15c-11.99-.13-23.97-.25-35.96-.38-.8,0-1.6,0-2.4-.06-2.08-.14-2.34-.44-2.4-2.7-.01-.48.02-.96.03-1.44.33-19.49.66-38.97.99-58.46.01-.64.05-1.28.09-1.91.08-1.1.65-1.78,1.78-1.87.64-.05,1.28-.02,1.92-.02,23.98.11,47.96.23,71.94.35.48,0,.96,0,1.44.03,4.13.2,4.25.24,4.22,4.45-.11,12.46-.3,24.92-.44,37.38-.08,6.71-.11,13.42-.16,20.13,0,.96.01,1.92-.06,2.87-.11,1.48-.54,1.92-2.13,1.94-4.48.04-8.95,0-13.43,0-8.47,0-16.94,0-25.42,0,0-.1,0-.21,0-.31Z"/>
  <path class="cls-6" d="M1101.56,1158.22c11.51.17,23.03.34,34.54.52.48,0,.96,0,1.44.04,1.45.12,2.02.61,2.06,2.08.08,3.36.09,6.71.06,10.07-.08,7.67-.23,15.34-.3,23.01-.09,10.55-.12,21.1-.18,31.65,0,.64.01,1.28-.03,1.92-.09,1.59-.47,2.08-1.94,2.13-2.4.08-4.8.08-7.2.06-12.63-.13-25.27-.29-37.9-.4-7.84-.07-15.68-.06-23.51-.1-1.28,0-2.55-.09-3.83-.19-.72-.06-1.16-.54-1.2-1.25-.06-1.11-.06-2.23-.05-3.35.09-16.15.18-32.29.3-48.44.04-5.11.12-10.23.23-15.34.05-2.23.31-2.53,2.49-2.54,6.4-.01,12.8.05,19.19.07,5.28.01,10.56,0,15.83,0,0,.02,0,.04,0,.06Z"/>
  <path class="cls-6" d="M950.56,1334.81c.62,1.24.42,2.54.41,3.8-.18,18.86-.39,37.72-.59,56.58,0,.64-.05,1.28-.14,1.91-.11.71-.61,1.12-1.31,1.14-2.4.06-4.79.13-7.19.11-17.11-.14-34.22-.3-51.33-.47-6.4-.06-12.79-.19-19.19-.29-.48,0-.96,0-1.44-.05-1.53-.14-1.99-.54-2.01-2.09-.03-3.04.02-6.07.07-9.11.28-15.82.54-31.64.86-47.46.11-5.35-.32-5.29,5.24-5.24,16.95.15,33.9.21,50.86.31,6.88.04,13.75.08,20.63.14,1.75.02,3.53-.12,5.14.72Z"/>
  <path class="cls-3" d="M1006.72,1228.28c-10.07,0-20.13,0-30.2,0-.8,0-1.6.02-2.4-.02-2.42-.11-2.72-.34-2.72-2.87-.02-6.87,0-13.73.09-20.6.15-13.25.34-26.5.52-39.76.03-1.92.03-3.83.14-5.75.1-1.76.61-2.28,2.34-2.3,3.51-.03,7.03.03,10.54.06,17.42.14,34.83.29,52.25.41,5.41.04,5.52-.34,5.49,5.6-.12,20.6-.29,41.2-.45,61.8,0,.48,0,.96-.02,1.44-.12,2.14-.52,2.64-2.51,2.64-4.79.01-9.59-.01-14.38-.1-6.23-.11-12.46-.28-18.68-.42,0-.05,0-.09,0-.14Z"/>
  <path class="cls-2" d="M1101.31,1249.35c11.19,0,22.38,0,33.56,0,.96,0,1.92.03,2.87.12.71.06,1.15.51,1.18,1.25.05.96.09,1.91.08,2.87-.16,19.17-.29,38.33-.54,57.5-.07,4.99.56,4.97-5.04,4.92-22.05-.17-44.11-.36-66.16-.54-4.06-.03-4.22.12-4.19-4.28.1-19.65.19-39.3.29-58.95,0-.64,0-1.28.05-1.92.07-.9.57-1.47,1.48-1.56.63-.07,1.27-.05,1.91-.05,11.5.15,23.01.31,34.51.47,0,.05,0,.1,0,.15Z"/>
  <path class="cls-3" d="M1102.1,1138.52c-11.34-.11-22.68-.23-34.02-.35-.8,0-1.6-.05-2.39-.13-.92-.1-1.41-.7-1.46-1.58-.07-1.27-.1-2.55-.09-3.83.07-18.2.15-36.41.24-54.61,0-.96.04-1.91.12-2.87.07-.92.66-1.47,1.52-1.56,1.11-.12,2.23-.14,3.35-.13,22.36.18,44.73.36,67.09.55.8,0,1.6.06,2.38.16.69.09,1.18.56,1.26,1.23.13,1.1.19,2.22.18,3.33-.1,18.52-.21,37.04-.32,55.56,0,.48,0,.96,0,1.44-.11,3-.26,3.24-3.36,3.23-8.95-.02-17.89-.13-26.84-.19-2.56-.02-5.11,0-7.67,0,0-.09,0-.17,0-.26Z"/>
  <path class="cls-6" d="M1006.28,1314.66c-10.23,0-20.46,0-30.69,0-.64,0-1.28,0-1.92,0-2.35.02-3.08-.1-3.01-2.93.2-8.15.2-16.3.27-24.44.1-11.18.19-22.37.28-33.55,0-.96-.02-1.92.01-2.88.09-2.42.32-2.71,2.84-2.72,5.44-.02,10.87.06,16.31.09,14.55.08,29.1.16,43.65.24,1.28,0,2.56.05,3.84.06,4.29.06,4.33-.06,4.31,4.18-.02,4.79.01,9.59,0,14.38-.06,12.78-.12,25.57-.2,38.35-.02,2.56-.1,5.11-.23,7.66-.1,1.82-.55,2.23-2.36,2.22-4.64,0-9.27-.03-13.91-.09-6.39-.08-12.78-.21-19.18-.32,0-.09,0-.18,0-.27Z"/>
  <path class="cls-2" d="M1006.24,1398.83c-10.39,0-20.79,0-31.18,0-.8,0-1.6.02-2.4-.03-2.28-.14-2.68-.55-2.66-2.98.13-18.86.27-37.72.41-56.58,0-.96.03-1.92.05-2.88.03-1.14.64-1.76,1.75-1.85.95-.07,1.92-.07,2.88-.07,20.31.12,40.62.24,60.93.37.64,0,1.28.03,1.92.06,3.56.15,3.63.16,3.61,3.92-.07,19.18-.18,38.36-.28,57.54,0,.48-.02.96-.04,1.44-.03.93-.51,1.5-1.43,1.59-.79.08-1.59.11-2.39.1-10.39-.15-20.78-.32-31.18-.48,0-.05,0-.11,0-.16Z"/>
  <path class="cls-1" d="M1236.39,1250.43c-.25,1.45-.33,2.41-.59,3.31-1.89,6.59-3.82,13.17-5.72,19.76-.89,3.1-2.3,5.94-4.03,8.64-6.73,10.49-15.91,18.2-27.04,23.65-1.29.63-2.59,1.24-3.93,1.75-4.64,1.76-9.09,3.89-13.19,6.71-2.45,1.69-5.1,2.38-8.11,2.24-4.46-.21-8.94-.09-13.41-.15-3.14-.04-3.25-.16-3.24-3.2.03-8.94.07-17.88.12-26.81.05-10.53.09-21.07.18-31.6.05-5.7-.23-5.21,5.23-5.16,23.31.21,46.62.46,69.93.7,1.1.01,2.21.1,3.81.18Z"/>
  <path class="cls-2" d="M868.11,1416.81c1.76-.63,3.35-.38,4.89-.35,24.43.53,48.86,1.1,73.29,1.66.8.02,1.6.03,2.39.09.95.07,1.37.68,1.43,1.57.04.64.07,1.28.05,1.91-.48,16.93.18,33.84.78,50.76.07,2.07.06,4.15.02,6.23-.05,2.22-.44,2.63-2.47,2.5-14.38-.91-28.04-4.33-40.56-11.71-14.6-8.61-25.25-20.86-33.03-35.76-2.37-4.53-4.36-9.23-6.1-14.04-.32-.87-.44-1.82-.68-2.85Z"/>
  <path class="cls-1" d="M970.39,1418.54c6.86,0,13.72-.06,20.58.01,13.27.14,26.53.36,39.8.54,2.88.04,5.76.04,8.63.11,1.24.03,1.79.56,1.71,1.76-.79,13.03-2.93,25.72-9.72,37.17-6.63,11.17-16.51,17.98-28.91,21.37-7.95,2.17-16.08,2.58-24.25,2.26-2.52-.1-5.11.22-7.56-.72-1.42-2.54-.64-5.29-.66-7.93-.15-16.46-.19-32.91-.22-49.37,0-1.72-.43-3.52.61-5.2Z"/>
  <path class="cls-1" d="M1100.91,1335.71c11.02,0,22.03,0,33.05,0,.96,0,1.91.02,2.87.07.69.03,1.28.36,1.33,1.08.31,5.09.79,10.2-.33,15.25-.6,2.7-2.07,4.96-3.86,7.06-6.13,7.19-12.87,13.76-20.36,19.52-5.94,4.57-11.96,9.06-18.04,13.44-2.97,2.14-6.13,4.02-9.27,5.92-2.37,1.43-4.94,2.05-7.77,1.92-4.3-.19-8.62-.09-12.93-.18-3.04-.06-3.12-.12-3.12-3.37,0-8.62.03-17.23.09-25.85.07-10.21.19-20.42.3-30.63.01-1.12.02-2.23.09-3.35.06-.94.69-1.45,1.57-1.46,1.75-.02,3.51.11,5.26.11,10.38.01,20.75,0,31.13,0,0,.15,0,.3,0,.45Z"/>
  <path class="cls-6" d="M1236.01,1139.63c-1.4.71-2.86.41-4.27.41-13.89-.09-27.78-.19-41.67-.35-9.42-.11-18.83-.32-28.25-.49-.64-.01-1.28-.02-1.91-.08-.91-.09-1.42-.61-1.47-1.54-.04-.64-.07-1.28-.06-1.91.15-19.31.31-38.62.47-57.93,0-.64.03-1.28.14-1.91.12-.68.57-1.22,1.26-1.23,1.91-.05,3.83,0,5.74.04,1.27.03,1.93,1,2.67,1.83,4.11,4.69,8.59,9.01,13.42,12.96,11.65,9.52,24.65,16.44,39.21,20.35,1.85.5,3.73,1.12,5.6,1.18,2.52.07,3.61,1.21,4.19,3.52,1.75,6.96,3.5,13.92,4.8,20.98.25,1.36.68,2.77.14,4.17Z"/>
  <path class="cls-6" d="M1505.99,1063.99c.11-.38.33-.59.74-.5-.05.47-.29.64-.74.5Z"/>
  <path class="cls-4" d="M803.97,690.48c37.56-.41,67.64,23.77,76.96,56.01,12.81,44.33-12.58,92.38-59.24,104.22-46.15,11.71-88.81-17.85-99.48-57.32-7.86-29.1,1.71-66.86,33.09-88.01,12.74-8.59,26.81-13.35,42.12-14.5,2.23-.17,4.47-.27,6.56-.4Z"/>
  <path class="cls-4" d="M1043.31,688.5c37.98-.91,67.73,22.22,78.16,53.62,8.94,26.91,2.79,57.97-15.66,79.68-13.82,16.26-31.35,25.78-52.54,28.73-41.12,5.72-80.31-21.83-90.1-60.22-7.59-29.76,3.03-67.55,35.01-88.03,12.06-7.73,25.26-12.13,39.54-13.33,2.07-.17,4.14-.34,5.6-.46Z"/>
  <path class="cls-4" d="M960.9,925.3c.38,18.23-14.19,35.71-35.47,35.76-20.36.04-35.44-16.05-35.69-35.13-.25-18.76,14.22-35.83,35.3-36,21.92-.18,36.04,17.63,35.86,35.37Z"/>
  <path class="cls-5" d="M843.82,758.8c-.06,4.04-.69,7.95-2,11.76-3.81,11.09-13.63,20.91-30.17,20.83-9-.05-17.28-2.9-24.47-8.49-5.02-3.9-8.92-8.68-11.2-14.67-2.82-7.42-2.73-14.78,1.31-21.7,6.87-11.74,16.97-18.91,30.72-20.24,6.84-.66,13.4.8,19.37,4.21,10.91,6.23,16.43,15.7,16.43,28.3Z"/>
  <path class="cls-5" d="M1051.87,724.18c7.22.12,13.88,2.04,19.8,6.23,8.69,6.15,13.1,14.63,13.45,25.21.14,4.34-.57,8.61-1.97,12.72-4.39,12.92-15.62,21.01-29.55,21.02-10.82,0-20.37-3.62-28.28-11.11-4.75-4.5-7.99-9.91-9.43-16.36-1.03-4.65-.75-9.18.9-13.65,4.67-12.68,20.02-24.49,35.07-24.06Z"/>
</svg>